<mxfile host="65bd71144e">
    <diagram id="IazLSSSJdwh09zSnc1SI" name="ページ1">
        <mxGraphModel dx="948" dy="290" grid="1" gridSize="10" guides="1" tooltips="1" connect="1" arrows="1" fold="1" page="1" pageScale="1" pageWidth="827" pageHeight="1169" math="0" shadow="0">
            <root>
                <mxCell id="0"/>
                <mxCell id="1" parent="0"/>
                <mxCell id="3" value="Service :&lt;br&gt;&amp;nbsp; share&lt;br&gt;Context :&lt;br&gt;&amp;nbsp; config" style="shape=note;whiteSpace=wrap;html=1;backgroundOutline=1;darkOpacity=0.05;fillColor=none;align=left;" vertex="1" parent="1">
                    <mxGeometry width="92" height="100" as="geometry"/>
                </mxCell>
                <mxCell id="4" value="&amp;lt;&amp;lt;Interface&amp;gt;&amp;gt;&lt;span&gt;&lt;br&gt;環境設定ファイル&lt;br&gt;&lt;/span&gt;" style="rounded=1;whiteSpace=wrap;html=1;fillColor=none;" vertex="1" parent="1">
                    <mxGeometry x="280" y="70" width="100" height="40" as="geometry"/>
                </mxCell>
                <mxCell id="10" style="html=1;exitX=0.5;exitY=0;exitDx=0;exitDy=0;entryX=0.5;entryY=1;entryDx=0;entryDy=0;endArrow=block;endFill=0;dashed=1;elbow=vertical;edgeStyle=orthogonalEdgeStyle;" edge="1" parent="1" source="5" target="4">
                    <mxGeometry relative="1" as="geometry"/>
                </mxCell>
                <mxCell id="5" value="クラウド&lt;br&gt;本番データ" style="rounded=1;whiteSpace=wrap;html=1;fillColor=none;" vertex="1" parent="1">
                    <mxGeometry x="50" y="230" width="100" height="40" as="geometry"/>
                </mxCell>
                <mxCell id="14" style="html=1;exitX=0.5;exitY=0;exitDx=0;exitDy=0;entryX=0.5;entryY=1;entryDx=0;entryDy=0;dashed=1;endArrow=block;endFill=0;elbow=vertical;edgeStyle=orthogonalEdgeStyle;" edge="1" parent="1" source="6" target="4">
                    <mxGeometry relative="1" as="geometry"/>
                </mxCell>
                <mxCell id="6" value="クラウド&lt;br&gt;テストデータ" style="rounded=1;whiteSpace=wrap;html=1;fillColor=none;" vertex="1" parent="1">
                    <mxGeometry x="165" y="230" width="100" height="40" as="geometry"/>
                </mxCell>
                <mxCell id="15" style="html=1;exitX=0.5;exitY=0;exitDx=0;exitDy=0;entryX=0.5;entryY=1;entryDx=0;entryDy=0;dashed=1;endArrow=block;endFill=0;elbow=vertical;edgeStyle=orthogonalEdgeStyle;" edge="1" parent="1" source="7" target="4">
                    <mxGeometry relative="1" as="geometry"/>
                </mxCell>
                <mxCell id="7" value="ローカル&lt;br&gt;本番データ" style="rounded=1;whiteSpace=wrap;html=1;fillColor=none;" vertex="1" parent="1">
                    <mxGeometry x="280" y="230" width="100" height="40" as="geometry"/>
                </mxCell>
                <mxCell id="16" style="html=1;exitX=0.5;exitY=0;exitDx=0;exitDy=0;entryX=0.5;entryY=1;entryDx=0;entryDy=0;dashed=1;endArrow=block;endFill=0;elbow=vertical;edgeStyle=orthogonalEdgeStyle;" edge="1" parent="1" source="8" target="4">
                    <mxGeometry relative="1" as="geometry"/>
                </mxCell>
                <mxCell id="8" value="ローカル&lt;br&gt;開発中データ" style="rounded=1;whiteSpace=wrap;html=1;fillColor=none;" vertex="1" parent="1">
                    <mxGeometry x="395" y="230" width="100" height="40" as="geometry"/>
                </mxCell>
                <mxCell id="17" style="html=1;exitX=0.5;exitY=0;exitDx=0;exitDy=0;entryX=0.5;entryY=1;entryDx=0;entryDy=0;dashed=1;endArrow=block;endFill=0;elbow=vertical;edgeStyle=orthogonalEdgeStyle;" edge="1" parent="1" source="9" target="4">
                    <mxGeometry relative="1" as="geometry"/>
                </mxCell>
                <mxCell id="9" value="ローカル&lt;br&gt;サンプルデータ" style="rounded=1;whiteSpace=wrap;html=1;fillColor=none;" vertex="1" parent="1">
                    <mxGeometry x="510" y="230" width="100" height="40" as="geometry"/>
                </mxCell>
            </root>
        </mxGraphModel>
    </diagram>
</mxfile>
